HIERARCHY
ROOT Hips
{
  OFFSET 0 0 0
  CHANNELS 6 Xposition Yposition Zposition Zrotation Yrotation Xrotation
  JOINT LeftThigh
  {
    OFFSET 8.409438 0 -5.917753
    CHANNELS 3 Zrotation Yrotation Xrotation
    JOINT LeftLeg
    {
      OFFSET 0 0 -42.358652
      CHANNELS 3 Zrotation Yrotation Xrotation
      JOINT LeftFoot
      {
        OFFSET 0 0 -39.357303
        CHANNELS 3 Zrotation Yrotation Xrotation
      }
    }
  }
  JOINT RightThigh
  {
    OFFSET -8.409438 0 -5.917753
    CHANNELS 3 Zrotation Yrotation Xrotation
    JOINT RightLeg
    {
      OFFSET 0 0 -42.358652
      CHANNELS 3 Zrotation Yrotation Xrotation
      JOINT RightFoot
      {
        OFFSET 0 0 -39.357303
        CHANNELS 3 Zrotation Yrotation Xrotation
      }
    }
  }
  JOINT SpineLow
  {
    OFFSET 0 0 4.719101
    CHANNELS 3 Zrotation Yrotation Xrotation
    JOINT SpineMid
    {
      OFFSET 0 0 12.899191
      CHANNELS 3 Zrotation Yrotation Xrotation
      JOINT Chest
      {
        OFFSET 0 0 12.899191
        CHANNELS 3 Zrotation Yrotation Xrotation
        JOINT LeftShoulder
        {
          OFFSET 7.550562 1.41573 9.438202
          CHANNELS 3 Zrotation Yrotation Xrotation
          JOINT LeftArm
          {
            OFFSET 9.155056 0 4.247191
            CHANNELS 3 Zrotation Yrotation Xrotation
            JOINT LeftForearm
            {
              OFFSET 0 0 25.771955
              CHANNELS 3 Zrotation Yrotation Xrotation
              JOINT LeftHand
              {
                OFFSET 0 0 25.197169
                CHANNELS 3 Zrotation Yrotation Xrotation
              }
            }
          }
        }
        JOINT RightShoulder
        {
          OFFSET -7.550562 1.41573 9.438202
          CHANNELS 3 Zrotation Yrotation Xrotation
          JOINT RightArm
          {
            OFFSET -9.155056 0 4.247191
            CHANNELS 3 Zrotation Yrotation Xrotation
            JOINT RightForearm
            {
              OFFSET 0 0 -25.771955
              CHANNELS 3 Zrotation Yrotation Xrotation
              JOINT RightHand
              {
                OFFSET 0 0 -25.197169
                CHANNELS 3 Zrotation Yrotation Xrotation
              }
            }
          }
        }
        JOINT Neck
        {
          OFFSET 0 0 15.101124
          CHANNELS 3 Zrotation Yrotation Xrotation
          JOINT Head
          {
            OFFSET 0 0 11.325843
            CHANNELS 3 Zrotation Yrotation Xrotation
            End Site
            {
              OFFSET 0 0 14.157303
            }
          }
        }
      }
    }
  }
}
MOTION
Frames: 8
Frame Time: 0.01
0.0  101.685394  0.0  -1.297107  32.850792  -104.338265  17.256916  -21.723154  -4.647907  -17.891387  15.397109  30.974128  3.46166  3.62464  3.716657  -22.060383  19.171599  1.063161  -7.654828  4.227493  28.415302  3.597302  6.720076  -2.204519  -1.141548  1.070687  1.449748  -3.056737  2.993112  3.913627  -3.056737  2.993112  3.913627  -7.702768  20.357395  29.819681  170.889688  74.14837  -107.3273  -50.040405  28.043128  81.929059  72.690013  17.3064  2.435898  16.665568  -18.96976  19.066612  118.820482  72.849579  36.744328  -29.836158  -18.197552  -99.187532  74.727544  1.895707  29.501626  -2.170749  -6.899225  -1.492684  -1.643023  -5.169239  -1.142785  
0.0  101.685394  0.0  -1.389817  32.536971  -104.312762  17.418003  -21.933414  -4.912374  -17.616174  15.493685  31.482812  3.337333  3.734437  3.669233  -21.727004  18.969099  0.564008  -7.695344  4.298788  29.349332  3.61435  6.932857  -2.227717  -1.149569  1.047919  1.463778  -3.079322  2.932031  3.952604  -3.079322  2.932031  3.952604  -7.858239  20.228702  29.29049  170.357339  74.780314  -108.121563  -50.108112  26.735678  82.973444  70.480702  17.896154  0.864671  16.477309  -18.931811  19.302102  120.049727  72.518491  37.241903  -29.649222  -16.144749  -98.460002  73.018025  1.412743  30.844417  -2.183809  -6.842487  -1.55619  -1.653413  -5.126431  -1.190322  
0.0  101.685394  0.0  -1.438539  32.070527  -104.24065  17.437746  -21.940065  -5.176684  -17.297751  15.475606  32.024455  3.288852  3.874743  3.641664  -21.390656  18.78544  -0.015353  -7.65535  4.387116  30.295673  3.544546  7.056849  -2.261343  -1.160421  1.016371  1.503547  -3.109052  2.848339  4.062233  -3.109052  2.848339  4.062233  -8.056095  20.035163  28.477712  169.364731  75.409672  -109.296195  -50.256664  25.333644  83.765828  68.775741  18.341665  -0.235623  16.559363  -18.824604  19.274005  121.077141  72.156338  37.530494  -29.743793  -14.449186  -97.09175  70.648328  1.538972  31.375588  -2.098547  -6.755206  -1.737884  -1.591385  -5.060566  -1.325209  
0.0  101.685394  0.0  -1.466625  31.401495  -104.161743  17.663239  -22.019502  -5.274005  -17.013966  15.391761  32.498475  3.365286  4.019904  3.617469  -21.069492  18.584369  -0.692308  -7.372487  4.380012  31.265673  3.711222  7.261454  -2.228817  -1.178833  0.966801  1.555823  -3.160117  2.716525  4.20656  -3.160117  2.716525  4.206561  -8.065725  19.896578  27.56217  168.42338  76.029334  -110.392  -50.245044  24.401178  84.409676  67.93634  18.632666  -1.045421  16.817599  -18.557503  19.142582  121.615144  71.837366  37.327834  -29.96434  -13.023478  -95.431177  68.26367  1.729254  31.143744  -1.848189  -6.631083  -1.99665  -1.406358  -4.9674  -1.51596  
0.0  101.685394  0.0  -1.418123  30.6011  -104.061453  17.834132  -21.989068  -5.232196  -16.885979  15.358788  32.815217  3.719557  4.175574  3.688507  -20.799249  18.375144  -1.480178  -6.698101  4.287146  32.264303  3.927381  7.473831  -2.140819  -1.194298  0.935149  1.617513  -3.201819  2.633991  4.376005  -3.201819  2.633991  4.376005  -8.188979  19.716456  26.539531  168.272728  76.576791  -110.962616  -49.976132  24.236047  84.958945  67.950063  18.938845  -1.69479  17.221365  -18.371029  18.926058  121.861918  71.636625  36.969662  -30.291981  -11.561067  -93.560227  66.043686  1.705091  30.34033  -1.506946  -6.554077  -2.304555  -1.153804  -4.910002  -1.742762  
0.0  101.685394  0.0  -1.326329  29.577858  -103.981742  18.241372  -21.946069  -5.107796  -16.732605  15.117157  33.139205  4.050555  4.313706  3.716949  -20.463528  18.101915  -2.327741  -5.925756  4.166735  33.213117  3.971913  7.67195  -2.022371  -1.180192  0.908033  1.685603  -3.162296  2.562213  4.563942  -3.162296  2.562213  4.563942  -8.352803  19.543252  25.518473  169.041003  77.104092  -110.872846  -49.366828  24.788673  85.630464  68.527523  19.532007  -2.138254  17.646398  -18.266606  18.687847  122.101109  71.541431  36.687244  -30.600038  -9.91305  -91.690944  64.270198  1.379444  29.28969  -1.129814  -6.512818  -2.637907  -0.874684  -4.879871  -1.988387  
0.0  101.685394  0.0  -1.180281  28.374624  -103.960244  18.609505  -21.691557  -4.884842  -16.592856  14.926678  33.570515  4.653431  4.247766  3.694426  -20.035698  17.89961  -3.234611  -5.101746  3.938498  34.20155  4.239501  7.967789  -1.835044  -1.131813  0.900594  1.775128  -3.027047  2.542615  4.810933  -3.027047  2.542615  4.810934  -8.707252  19.286636  24.545715  171.072105  77.732613  -109.78442  -48.583566  25.842538  86.366684  69.505051  20.45286  -2.186093  18.060585  -18.316176  18.325596  122.372159  71.501505  36.453224  -30.814141  -8.002692  -89.946638  63.186338  0.839876  28.058242  -0.765112  -6.531777  -3.031088  -0.605749  -4.895195  -2.279059  
0.0  101.685394  0.0  -1.017813  26.960697  -103.969277  19.320769  -21.53122  -4.520972  -16.387956  14.277041  33.762883  4.764743  4.31892  3.794077  -19.63464  17.741242  -4.140073  -4.242868  3.629423  35.07897  4.326807  8.109766  -1.691017  -1.043964  0.893886  1.874225  -2.783569  2.52204  5.085579  -2.783569  2.52204  5.085579  -9.25736  19.066868  23.600854  174.102402  78.499842  -107.985407  -47.727251  27.392126  87.115085  70.754882  21.538091  -1.859124  18.381815  -18.446344  17.912946  122.674355  71.449194  36.238458  -31.036266  -5.632672  -88.367943  62.848694  0.310907  26.536834  -0.435063  -6.554507  -3.4671  -0.363284  -4.913606  -2.602166  
